<?xml version="1.0" encoding="UTF-8" standalone="no"?>
<svg
   xmlns:dc="http://purl.org/dc/elements/1.1/"
   xmlns:cc="http://creativecommons.org/ns#"
   xmlns:rdf="http://www.w3.org/1999/02/22-rdf-syntax-ns#"
   xmlns:svg="http://www.w3.org/2000/svg"
   xmlns="http://www.w3.org/2000/svg"
   xmlns:xlink="http://www.w3.org/1999/xlink"
   xmlns:sodipodi="http://sodipodi.sourceforge.net/DTD/sodipodi-0.dtd"
   xmlns:inkscape="http://www.inkscape.org/namespaces/inkscape"
   width="64"
   height="63.999996"
   viewBox="0 0 64 63.999996"
   version="1.1"
   id="svg4"
   sodipodi:docname="GitHubOutline.svg"
   inkscape:version="0.92.4 (5da689c313, 2019-01-14)"
   style="fill:none">
  <metadata
     id="metadata10">
    <rdf:RDF>
      <cc:Work
         rdf:about="">
        <dc:format>image/svg+xml</dc:format>
        <dc:type
           rdf:resource="http://purl.org/dc/dcmitype/StillImage" />
        <dc:title></dc:title>
      </cc:Work>
    </rdf:RDF>
  </metadata>
  <defs
     id="defs8">
    <clipPath
       clipPathUnits="userSpaceOnUse"
       id="clipPath1937">
      <path
         d="M 32,0 C 14.32,0 0,14.6822 0,32.8094 c 0,14.51816 9.16,26.78067 21.88,31.12792 1.6,0.28708 2.2,-0.6972 2.2,-1.55845 0,-0.77922 -0.04,-3.36296 -0.04,-6.11075 C 16,57.78556 13.92,54.25855 13.28,52.41302 12.92,51.46975 11.36,48.55791 10,47.77869 8.88,47.16351 7.28,45.64608 9.96,45.60507 c 2.52,-0.041 4.32,2.37868 4.92,3.36296 2.88,4.96242 7.48,3.56802 9.32,2.70678 0.28,-2.13262 1.12,-3.56803 2.04,-4.38826 -7.12,-0.82024 -14.56,-3.65005 -14.56,-16.19964 0,-3.56803 1.24,-6.52087 3.28,-8.81753 -0.32,-0.82024 -1.44,-4.1832 0.32,-8.69449 0,0 2.68,-0.86125 8.8,3.36296 2.56,-0.73821 5.28,-1.10732 8,-1.10732 2.72,0 5.44,0.36911 8,1.10732 6.12,-4.26522 8.8,-3.36296 8.8,-3.36296 1.76,4.51129 0.64,7.87425 0.32,8.69449 2.04,2.29666 3.28,5.20849 3.28,8.81753 0,12.5906 -7.48,15.3794 -14.6,16.19964 1.16,1.02529 2.16,2.99386 2.16,6.06974 0,4.38826 -0.04,7.91527 -0.04,9.02258 0,0.86125 0.6,1.88654 2.2,1.55845 C 54.84,59.59007 64,47.28655 64,32.8094 64,14.6822 49.68,0 32,0 Z"
         id="path1939"
         style="clip-rule:evenodd;fill:none;fill-opacity:1;fill-rule:evenodd;stroke:#000000;stroke-width:6;stroke-miterlimit:4;stroke-dasharray:none;stroke-opacity:1"
         inkscape:connector-curvature="0" />
    </clipPath>
  </defs>
  <sodipodi:namedview
     pagecolor="#ffffff"
     bordercolor="#666666"
     borderopacity="1"
     objecttolerance="10"
     gridtolerance="10"
     guidetolerance="10"
     inkscape:pageopacity="0"
     inkscape:pageshadow="2"
     inkscape:window-width="1920"
     inkscape:window-height="1017"
     id="namedview6"
     showgrid="false"
     inkscape:zoom="7.375"
     inkscape:cx="21.991469"
     inkscape:cy="30.655816"
     inkscape:window-x="-8"
     inkscape:window-y="-8"
     inkscape:window-maximized="1"
     inkscape:current-layer="svg4" />
  <path
     sodipodi:type="inkscape:offset"
     inkscape:radius="0"
     inkscape:original="M 32 0 C 14.32 0 0 14.681394 0 32.808594 C 0 47.326754 9.1608594 59.59025 21.880859 63.9375 C 23.480859 64.22458 24.080078 63.240156 24.080078 62.378906 C 24.080078 61.599686 24.039062 59.015368 24.039062 56.267578 C 15.999063 57.785018 13.919297 54.257639 13.279297 52.412109 C 12.919297 51.468839 11.36 48.558517 10 47.779297 C 8.88 47.164117 7.2809375 45.646479 9.9609375 45.605469 C 12.480937 45.564469 14.280859 47.98447 14.880859 48.96875 C 17.760859 53.93117 22.359219 52.537021 24.199219 51.675781 C 24.479219 49.543161 25.320234 48.107339 26.240234 47.287109 C 19.120234 46.466869 11.679687 43.635528 11.679688 31.085938 C 11.679688 27.517907 12.920938 24.566191 14.960938 22.269531 C 14.640937 21.449291 13.519297 18.085509 15.279297 13.574219 C 15.279297 13.574219 17.960078 12.71329 24.080078 16.9375 C 26.640078 16.19929 29.360078 15.830078 32.080078 15.830078 C 34.800078 15.830078 37.520078 16.19929 40.080078 16.9375 C 46.200078 12.67228 48.880859 13.574219 48.880859 13.574219 C 50.640859 18.085509 49.519219 21.449291 49.199219 22.269531 C 51.239219 24.566191 52.480469 27.476898 52.480469 31.085938 C 52.480469 43.676538 45.000859 46.466869 37.880859 47.287109 C 39.040859 48.312399 40.039062 50.279589 40.039062 53.355469 C 40.039062 57.743729 40 61.271596 40 62.378906 C 40 63.240156 40.599219 64.26559 42.199219 63.9375 C 54.839219 59.59025 64 47.285744 64 32.808594 C 64 14.681394 49.68 0 32 0 z "
     xlink:href="#path2"
     style="clip-rule:evenodd;fill:none;fill-opacity:1;fill-rule:evenodd;stroke:#000000;stroke-opacity:1;stroke-width:3;stroke-miterlimit:4;stroke-dasharray:none"
     id="path1929"
     inkscape:href="#path2"
     d="M 32,0 C 14.32,0 0,14.681394 0,32.808594 0,47.326754 9.1608594,59.59025 21.880859,63.9375 c 1.6,0.28708 2.199219,-0.697344 2.199219,-1.558594 0,-0.77922 -0.04102,-3.363538 -0.04102,-6.111328 C 15.999063,57.785018 13.919297,54.257639 13.279297,52.412109 12.919297,51.468839 11.36,48.558517 10,47.779297 8.88,47.164117 7.2809375,45.646479 9.9609375,45.605469 c 2.5199995,-0.041 4.3199215,2.379001 4.9199215,3.363281 2.88,4.96242 7.47836,3.568271 9.31836,2.707031 0.28,-2.13262 1.121015,-3.568442 2.041015,-4.388672 -7.12,-0.82024 -14.560547,-3.651581 -14.560546,-16.201171 0,-3.568031 1.24125,-6.519747 3.28125,-8.816407 -0.320001,-0.82024 -1.441641,-4.184022 0.318359,-8.695312 0,0 2.680781,-0.860929 8.800781,3.363281 2.56,-0.73821 5.28,-1.107422 8,-1.107422 2.72,0 5.44,0.369212 8,1.107422 6.12,-4.26522 8.800781,-3.363281 8.800781,-3.363281 1.76,4.51129 0.63836,7.875072 0.31836,8.695312 2.04,2.29666 3.28125,5.207367 3.28125,8.816407 0,12.5906 -7.47961,15.380931 -14.59961,16.201171 1.16,1.02529 2.158203,2.99248 2.158203,6.06836 0,4.38826 -0.03906,7.916127 -0.03906,9.023437 0,0.86125 0.599219,1.886684 2.199219,1.558594 C 54.839219,59.59025 64,47.285744 64,32.808594 64,14.681394 49.68,0 32,0 Z"
     clip-path="url(#clipPath1937)" />
</svg>
