<?xml version="1.0" encoding="UTF-8" standalone="no"?>
<svg
   xmlns:dc="http://purl.org/dc/elements/1.1/"
   xmlns:cc="http://creativecommons.org/ns#"
   xmlns:rdf="http://www.w3.org/1999/02/22-rdf-syntax-ns#"
   xmlns:svg="http://www.w3.org/2000/svg"
   xmlns="http://www.w3.org/2000/svg"
   xmlns:sodipodi="http://sodipodi.sourceforge.net/DTD/sodipodi-0.dtd"
   xmlns:inkscape="http://www.inkscape.org/namespaces/inkscape"
   width="64"
   height="63.999996"
   viewBox="0 0 64 63.999996"
   version="1.1"
   id="svg4"
   sodipodi:docname="GitHubFill.svg"
   inkscape:version="0.92.4 (5da689c313, 2019-01-14)"
   style="fill:none">
  <metadata
     id="metadata10">
    <rdf:RDF>
      <cc:Work
         rdf:about="">
        <dc:format>image/svg+xml</dc:format>
        <dc:type
           rdf:resource="http://purl.org/dc/dcmitype/StillImage" />
        <dc:title />
      </cc:Work>
    </rdf:RDF>
  </metadata>
  <defs
     id="defs8" />
  <sodipodi:namedview
     pagecolor="#ffffff"
     bordercolor="#666666"
     borderopacity="1"
     objecttolerance="10"
     gridtolerance="10"
     guidetolerance="10"
     inkscape:pageopacity="0"
     inkscape:pageshadow="2"
     inkscape:window-width="1920"
     inkscape:window-height="1017"
     id="namedview6"
     showgrid="false"
     inkscape:zoom="7.375"
     inkscape:cx="21.991469"
     inkscape:cy="30.655816"
     inkscape:window-x="-8"
     inkscape:window-y="-8"
     inkscape:window-maximized="1"
     inkscape:current-layer="svg4" />
  <path
     d="M 32,0 C 14.32,0 0,14.6822 0,32.8094 c 0,14.51816 9.16,26.78067 21.88,31.12792 1.6,0.28708 2.2,-0.6972 2.2,-1.55845 0,-0.77922 -0.04,-3.36296 -0.04,-6.11075 C 16,57.78556 13.92,54.25855 13.28,52.41302 12.92,51.46975 11.36,48.55791 10,47.77869 8.88,47.16351 7.28,45.64608 9.96,45.60507 c 2.52,-0.041 4.32,2.37868 4.92,3.36296 2.88,4.96242 7.48,3.56802 9.32,2.70678 0.28,-2.13262 1.12,-3.56803 2.04,-4.38826 -7.12,-0.82024 -14.56,-3.65005 -14.56,-16.19964 0,-3.56803 1.24,-6.52087 3.28,-8.81753 -0.32,-0.82024 -1.44,-4.1832 0.32,-8.69449 0,0 2.68,-0.86125 8.8,3.36296 2.56,-0.73821 5.28,-1.10732 8,-1.10732 2.72,0 5.44,0.36911 8,1.10732 6.12,-4.26522 8.8,-3.36296 8.8,-3.36296 1.76,4.51129 0.64,7.87425 0.32,8.69449 2.04,2.29666 3.28,5.20849 3.28,8.81753 0,12.5906 -7.48,15.3794 -14.6,16.19964 1.16,1.02529 2.16,2.99386 2.16,6.06974 0,4.38826 -0.04,7.91527 -0.04,9.02258 0,0.86125 0.6,1.88654 2.2,1.55845 C 54.84,59.59007 64,47.28655 64,32.8094 64,14.6822 49.68,0 32,0 Z"
     id="path2"
     style="clip-rule:evenodd;fill:#000000;fill-opacity:1;fill-rule:evenodd;stroke-width:4.05027199"
     inkscape:connector-curvature="0" />
</svg>
