<?xml version="1.0" encoding="UTF-8" standalone="no"?>
<svg
   xmlns:dc="http://purl.org/dc/elements/1.1/"
   xmlns:cc="http://creativecommons.org/ns#"
   xmlns:rdf="http://www.w3.org/1999/02/22-rdf-syntax-ns#"
   xmlns:svg="http://www.w3.org/2000/svg"
   xmlns="http://www.w3.org/2000/svg"
   xmlns:xlink="http://www.w3.org/1999/xlink"
   xmlns:sodipodi="http://sodipodi.sourceforge.net/DTD/sodipodi-0.dtd"
   xmlns:inkscape="http://www.inkscape.org/namespaces/inkscape"
   viewBox="0 0 64 64"
   version="1.1"
   id="svg4"
   sodipodi:docname="ResumeOutline.svg"
   width="64"
   height="64"
   inkscape:version="0.92.4 (5da689c313, 2019-01-14)">
  <metadata
     id="metadata10">
    <rdf:RDF>
      <cc:Work
         rdf:about="">
        <dc:format>image/svg+xml</dc:format>
        <dc:type
           rdf:resource="http://purl.org/dc/dcmitype/StillImage" />
        <dc:title></dc:title>
      </cc:Work>
    </rdf:RDF>
  </metadata>
  <defs
     id="defs8">
    <clipPath
       clipPathUnits="userSpaceOnUse"
       id="clipPath2495">
      <path
         d="M 38.4,0 H 12.8 C 9.264,0 6.4,2.864 6.4,6.4 v 51.2 c 0,3.536 2.864,6.4 6.4,6.4 h 38.4 c 3.536,0 6.4,-2.864 6.4,-6.4 V 19.2 Z M 32,57.6 H 16 V 51.2 H 32 Z M 48,48 H 16 v -6.4 h 32 z m 0,-9.6 H 16 V 32 H 48 Z M 35.2,22.4 V 4.8 l 17.6,17.6 z"
         id="path2497"
         inkscape:connector-curvature="0"
         style="fill:none;fill-opacity:1;stroke:#000000;stroke-width:6;stroke-miterlimit:4;stroke-dasharray:none;stroke-opacity:1" />
    </clipPath>
  </defs>
  <sodipodi:namedview
     pagecolor="#ffffff"
     bordercolor="#666666"
     borderopacity="1"
     objecttolerance="10"
     gridtolerance="10"
     guidetolerance="10"
     inkscape:pageopacity="0"
     inkscape:pageshadow="2"
     inkscape:window-width="1920"
     inkscape:window-height="1017"
     id="namedview6"
     showgrid="false"
     fit-margin-left="2.7755576e-17"
     fit-margin-top="-0.3"
     inkscape:zoom="6.9532167"
     inkscape:cx="31.982196"
     inkscape:cy="45.786079"
     inkscape:window-x="-8"
     inkscape:window-y="-8"
     inkscape:window-maximized="1"
     inkscape:current-layer="svg4" />
  <path
     sodipodi:type="inkscape:offset"
     inkscape:radius="0"
     inkscape:original="M 12.800781 0 C 9.2647812 0 6.4003906 2.8643906 6.4003906 6.4003906 L 6.4003906 57.599609 C 6.4003906 61.135609 9.2647812 64 12.800781 64 L 51.199219 64 C 54.735219 64 57.599609 61.135609 57.599609 57.599609 L 57.599609 19.199219 L 38.400391 0 L 12.800781 0 z M 35.199219 4.8007812 L 52.800781 22.400391 L 35.199219 22.400391 L 35.199219 4.8007812 z M 16 32 L 48 32 L 48 38.400391 L 16 38.400391 L 16 32 z M 16 41.599609 L 48 41.599609 L 48 48 L 16 48 L 16 41.599609 z M 16 51.199219 L 32 51.199219 L 32 57.599609 L 16 57.599609 L 16 51.199219 z "
     xlink:href="#path2"
     style="fill:none;fill-opacity:1;stroke-width:3;stroke:#000000;stroke-opacity:1;stroke-miterlimit:4;stroke-dasharray:none;stroke-linejoin:round"
     id="path2491"
     inkscape:href="#path2"
     d="M 12.800781,0 C 9.2647812,0 6.4003906,2.8643906 6.4003906,6.4003906 V 57.599609 c 0,3.536 2.8643906,6.400391 6.4003904,6.400391 h 38.398438 c 3.536,0 6.40039,-2.864391 6.40039,-6.400391 V 19.199219 L 38.400391,0 Z M 35.199219,4.8007812 52.800781,22.400391 H 35.199219 Z M 16,32 h 32 v 6.400391 H 16 Z m 0,9.599609 H 48 V 48 H 16 Z m 0,9.59961 h 16 v 6.40039 H 16 Z"
     clip-path="url(#clipPath2495)" />
</svg>
